<?xml version="1.0" encoding="utf-8"?>
<!-- Generator: Adobe Illustrator 16.0.3, SVG Export Plug-In . SVG Version: 6.00 Build 0)  -->
<!DOCTYPE svg PUBLIC "-//W3C//DTD SVG 1.1//EN" "http://www.w3.org/Graphics/SVG/1.1/DTD/svg11.dtd">
<svg version="1.1" xmlns="http://www.w3.org/2000/svg" xmlns:xlink="http://www.w3.org/1999/xlink" x="0px" y="0px"
	 width="799.068px" height="212.875px" viewBox="0 0 799.068 212.875" enable-background="new 0 0 799.068 212.875"
	 xml:space="preserve">
<g id="Background" display="none">
	<rect display="inline" fill="#242424" stroke="#FFFFFF" stroke-miterlimit="10" width="799.068" height="212.875"/>
</g>
<g id="Banner">
	<g id="Text">
		<g id="clean-css">
			<g id="Page-1_1_">
				<g id="logo-4_1_" transform="translate(0.000000, -1.000000)">
					<g id="label_1_" transform="translate(34.000000, 0.300000)">
						<path id="Shape_17_" fill="#27AAE1" d="M154.127,86.296c0-5.106,0.882-9.93,2.646-14.486c1.763-4.544,4.244-8.492,7.446-11.83
							c3.202-3.345,6.982-5.988,11.348-7.934c4.362-1.951,9.142-2.925,14.34-2.925c6.591,0,12.365,1.484,17.331,4.455
							c4.966,2.97,8.746,7.101,11.346,12.391l-6.822,2.229c-2.139-3.988-5.201-7.122-9.188-9.4
							c-3.99-2.273-8.354-3.408-13.087-3.408c-3.99,0-7.702,0.788-11.137,2.365c-3.436,1.579-6.426,3.76-8.979,6.544
							c-2.555,2.785-4.547,6.059-5.987,9.816c-1.438,3.764-2.155,7.819-2.155,12.184c0,4.367,0.765,8.472,2.299,12.32
							c1.532,3.849,3.569,7.199,6.127,10.022c2.552,2.838,5.546,5.082,8.979,6.76c3.433,1.673,7.102,2.499,10.999,2.499
							c2.507,0,4.986-0.369,7.446-1.111c2.458-0.746,4.734-1.719,6.822-2.926c2.088-1.206,3.899-2.614,5.43-4.238
							c1.532-1.621,2.578-3.326,3.13-5.09l6.822,1.955c-0.927,2.5-2.344,4.851-4.244,7.035c-1.903,2.179-4.155,4.067-6.754,5.641
							c-2.603,1.572-5.454,2.804-8.561,3.685c-3.112,0.883-6.332,1.318-9.674,1.318c-5.105,0-9.838-0.994-14.2-2.99
							c-4.366-1.998-8.146-4.73-11.349-8.215c-3.202-3.488-5.729-7.498-7.586-12.046C155.047,96.367,154.127,91.49,154.127,86.296
							L154.127,86.296z"/>
						<path id="Shape_16_" fill="#27AAE1" d="M242.843,23.566v85.442c0,2.69,0.767,4.828,2.299,6.403
							c1.53,1.579,3.641,2.367,6.332,2.367c1.021,0,2.249-0.115,3.692-0.349c1.438-0.23,2.759-0.58,3.965-1.054l1.393,5.577
							c-1.579,0.652-3.527,1.184-5.848,1.598c-2.32,0.418-4.315,0.631-5.987,0.631c-3.897,0-7.031-1.186-9.398-3.549
							c-2.367-2.371-3.549-5.547-3.549-9.537v-87.53H242.843z"/>
						<path id="Shape_15_" fill="#27AAE1" d="M300.579,124.159c-5.104,0-9.838-0.994-14.201-2.991
							c-4.364-1.997-8.145-4.733-11.347-8.214c-3.202-3.488-5.709-7.498-7.518-12.046c-1.812-4.544-2.714-9.425-2.714-14.619
							c0-5.108,0.902-9.905,2.714-14.415c1.809-4.497,4.289-8.438,7.446-11.826c3.154-3.387,6.914-6.057,11.275-8.006
							c4.365-1.95,9.05-2.925,14.062-2.925c5.104,0,9.816,1.001,14.125,2.991c4.316,1.996,8.055,4.688,11.213,8.075
							c3.153,3.389,5.642,7.333,7.446,11.83c1.813,4.506,2.714,9.261,2.714,14.269c0,0.468-0.021,1.046-0.071,1.738
							c-0.051,0.697-0.07,1.136-0.07,1.321h-63.614c0.279,4.176,1.254,8.053,2.925,11.626c1.67,3.575,3.781,6.66,6.333,9.264
							c2.552,2.604,5.501,4.637,8.842,6.122c3.343,1.485,6.915,2.23,10.718,2.23c2.506,0,4.985-0.353,7.452-1.046
							c2.456-0.688,4.734-1.646,6.818-2.852c2.092-1.207,3.944-2.672,5.573-4.391c1.628-1.715,2.9-3.604,3.825-5.641l6.131,1.677
							c-1.117,2.604-2.671,4.982-4.666,7.171c-2,2.176-4.316,4.065-6.966,5.642c-2.642,1.569-5.543,2.803-8.703,3.682
							C307.173,123.719,303.92,124.159,300.579,124.159L300.579,124.159z M328.983,83.786c-0.279-4.262-1.23-8.166-2.853-11.69
							c-1.625-3.522-3.716-6.564-6.268-9.119c-2.555-2.551-5.501-4.545-8.844-5.987c-3.342-1.435-6.918-2.156-10.725-2.156
							c-3.802,0-7.375,0.722-10.717,2.156c-3.341,1.438-6.289,3.437-8.843,5.987c-2.553,2.555-4.594,5.617-6.125,9.188
							c-1.531,3.576-2.438,7.449-2.715,11.626L328.983,83.786L328.983,83.786z"/>
						<path id="Shape_14_" fill="#27AAE1" d="M368.936,124.159c-3.345,0-6.472-0.575-9.397-1.732
							c-2.927-1.157-5.478-2.744-7.66-4.733c-2.178-1.998-3.877-4.365-5.076-7.095c-1.211-2.743-1.813-5.692-1.813-8.844
							c0-3.158,0.742-6.033,2.228-8.632c1.485-2.603,3.569-4.848,6.268-6.758c2.69-1.901,5.87-3.387,9.538-4.455
							c3.661-1.066,7.725-1.599,12.18-1.599c3.896,0,7.841,0.346,11.836,1.043c3.984,0.695,7.554,1.652,10.716,2.857v-7.104
							c0-6.865-1.945-12.316-5.854-16.353c-3.896-4.042-9.179-6.06-15.865-6.06c-3.621,0-7.405,0.746-11.346,2.229
							c-3.944,1.484-7.914,3.623-11.908,6.403l-2.78-4.729c9.374-6.315,18.19-9.469,26.45-9.469c8.723,0,15.611,2.527,20.673,7.586
							c5.062,5.062,7.586,12.045,7.586,20.958v35.356c0,2.32,0.973,3.486,2.928,3.486v6.268c-0.471,0.084-0.909,0.133-1.323,0.133
							h-1.18c-1.673,0-3.195-0.572-4.595-1.736c-1.397-1.153-2.092-2.659-2.092-4.524v-5.988
							c-3.343,4.364-7.585,7.704-12.729,10.025C380.561,123.012,374.974,124.159,368.936,124.159L368.936,124.159z M370.328,118.593
							c5.383,0,10.347-0.994,14.898-2.992c4.543-1.997,7.936-4.709,10.166-8.141c1.575-1.856,2.363-3.714,2.363-5.574V89.075
							c-7.056-2.6-14.293-3.899-21.713-3.899c-7.239,0-13.087,1.485-17.542,4.455c-4.455,2.974-6.683,6.871-6.683,11.694
							c0,2.414,0.463,4.685,1.393,6.818c0.927,2.141,2.23,3.967,3.897,5.501c1.675,1.526,3.645,2.739,5.919,3.618
							C365.295,118.155,367.729,118.593,370.328,118.593L370.328,118.593z"/>
						<path id="Shape_13_" fill="#27AAE1" d="M485.188,122.918h-6.957V82.395c0-9.374-1.324-16.196-3.965-20.465
							c-2.646-4.268-6.897-6.406-12.733-6.406c-3.062,0-6.107,0.558-9.123,1.672c-3.022,1.114-5.801,2.694-8.356,4.734
							c-2.559,2.041-4.804,4.433-6.756,7.171c-1.952,2.738-3.389,5.686-4.314,8.842v44.975h-6.959V50.374h6.4v17.26
							c1.484-2.78,3.348-5.308,5.577-7.586c2.225-2.272,4.687-4.224,7.37-5.85c2.691-1.621,5.592-2.874,8.704-3.76
							c3.109-0.882,6.293-1.321,9.538-1.321c7.886,0,13.46,2.763,16.709,8.283c3.249,5.521,4.874,13.436,4.874,23.734v41.783
							L485.188,122.918L485.188,122.918z"/>
						<polygon id="Shape_12_" fill="#27AAE1" points="504.543,88.102 504.543,81.702 544.633,81.702 544.633,88.102 						"/>
						<path id="Shape_11_" fill="#27AAE1" d="M559.943,86.296c0-5.106,0.882-9.93,2.643-14.486c1.764-4.544,4.239-8.492,7.453-11.83
							c3.197-3.345,6.979-5.988,11.344-7.934c4.372-1.951,9.147-2.925,14.35-2.925c6.593,0,12.36,1.484,17.328,4.455
							c4.976,2.97,8.743,7.101,11.354,12.391l-6.818,2.229c-2.145-3.988-5.2-7.122-9.188-9.4c-3.992-2.273-8.354-3.408-13.087-3.408
							c-3.991,0-7.704,0.788-11.139,2.365c-3.435,1.579-6.433,3.76-8.983,6.544c-2.555,2.785-4.542,6.059-5.992,9.816
							c-1.434,3.764-2.158,7.819-2.158,12.184c0,4.367,0.771,8.472,2.305,12.32c1.537,3.849,3.569,7.199,6.125,10.022
							c2.56,2.838,5.551,5.082,8.987,6.76c3.431,1.673,7.099,2.499,10.995,2.499c2.51,0,4.98-0.369,7.453-1.111
							c2.454-0.746,4.727-1.719,6.818-2.926c2.084-1.206,3.9-2.614,5.428-4.238c1.538-1.621,2.584-3.326,3.131-5.09l6.826,1.955
							c-0.933,2.5-2.34,4.851-4.243,7.035c-1.903,2.179-4.155,4.067-6.76,5.641c-2.598,1.572-5.448,2.804-8.559,3.685
							c-3.109,0.883-6.327,1.318-9.671,1.318c-5.114,0-9.845-0.994-14.202-2.99c-4.371-1.998-8.144-4.73-11.351-8.215
							c-3.2-3.488-5.731-7.498-7.594-12.046C560.871,96.367,559.943,91.49,559.943,86.296L559.943,86.296z"/>
						<path id="Shape_10_" fill="#27AAE1" d="M663.25,124.159c-5.57,0-10.911-0.928-16.005-2.779
							c-5.113-1.856-9.569-4.64-13.361-8.354l3.485-4.729c3.896,3.523,7.935,6.127,12.113,7.797
							c4.178,1.674,8.771,2.511,13.78,2.511c6.317,0,11.386-1.324,15.245-3.968c3.853-2.643,5.776-6.326,5.776-11.074
							c0-2.226-0.488-4.103-1.461-5.641c-0.974-1.527-2.438-2.823-4.39-3.897c-1.944-1.066-4.36-2.013-7.229-2.852
							c-2.886-0.837-6.216-1.714-10.032-2.643c-4.083-0.931-7.639-1.859-10.644-2.783c-3.017-0.926-5.497-2.04-7.446-3.345
							c-1.956-1.308-3.413-2.878-4.389-4.734c-0.971-1.86-1.457-4.224-1.457-7.1c0-3.617,0.688-6.769,2.084-9.465
							c1.397-2.691,3.322-4.919,5.779-6.681c2.455-1.761,5.281-3.086,8.492-3.968c3.196-0.882,6.616-1.321,10.229-1.321
							c5.662,0,10.675,0.954,15.032,2.854c4.372,1.905,7.761,4.337,10.173,7.307l-3.897,3.76c-2.42-2.781-5.557-4.87-9.405-6.266
							c-3.842-1.392-7.955-2.089-12.313-2.089c-2.691,0-5.222,0.279-7.585,0.835c-2.371,0.559-4.435,1.44-6.199,2.646
							c-1.76,1.206-3.158,2.759-4.176,4.666c-1.021,1.901-1.534,4.152-1.534,6.751c0,2.137,0.35,3.854,1.046,5.15
							c0.69,1.299,1.813,2.416,3.345,3.349c1.536,0.927,3.502,1.734,5.914,2.435c2.416,0.695,5.285,1.463,8.633,2.3
							c4.539,1.111,8.583,2.18,12.117,3.201c3.527,1.017,6.471,2.276,8.842,3.759c2.369,1.484,4.18,3.249,5.431,5.29
							c1.255,2.039,1.876,4.638,1.876,7.796c0,6.497-2.531,11.677-7.593,15.529C678.442,122.234,671.693,124.159,663.25,124.159
							L663.25,124.159z"/>
						<path id="Shape_9_" fill="#27AAE1" d="M730.211,124.159c-5.578,0-10.904-0.928-16.008-2.779
							c-5.111-1.856-9.566-4.64-13.366-8.354l3.486-4.729c3.903,3.523,7.94,6.127,12.116,7.797
							c4.178,1.674,8.771,2.511,13.777,2.511c6.316,0,11.387-1.324,15.248-3.968c3.859-2.643,5.78-6.326,5.78-11.074
							c0-2.226-0.495-4.103-1.465-5.641c-0.97-1.527-2.434-2.823-4.386-3.897c-1.944-1.066-4.364-2.013-7.233-2.852
							c-2.883-0.837-6.22-1.714-10.029-2.643c-4.089-0.931-7.634-1.859-10.643-2.783c-3.017-0.926-5.501-2.04-7.446-3.345
							c-1.952-1.305-3.416-2.878-4.389-4.734c-0.967-1.856-1.465-4.224-1.465-7.1c0-3.617,0.696-6.769,2.092-9.465
							c1.397-2.691,3.322-4.919,5.779-6.681c2.457-1.761,5.281-3.086,8.492-3.968c3.2-0.882,6.62-1.321,10.229-1.321
							c5.662,0,10.671,0.954,15.039,2.854c4.365,1.905,7.746,4.337,10.169,7.307l-3.908,3.76c-2.412-2.781-5.542-4.87-9.392-6.266
							c-3.855-1.392-7.955-2.089-12.326-2.089c-2.691,0-5.215,0.279-7.586,0.835c-2.36,0.559-4.428,1.44-6.188,2.646
							c-1.764,1.206-3.158,2.759-4.177,4.666c-1.024,1.901-1.537,4.152-1.537,6.751c0,2.137,0.354,3.854,1.046,5.15
							c0.697,1.299,1.813,2.416,3.343,3.349c1.538,0.927,3.497,1.734,5.92,2.435c2.412,0.695,5.281,1.463,8.631,2.3
							c4.544,1.111,8.58,2.18,12.114,3.201c3.531,1.017,6.472,2.276,8.849,3.759c2.363,1.484,4.177,3.249,5.432,5.29
							c1.255,2.039,1.872,4.638,1.872,7.796c0,6.497-2.531,11.677-7.589,15.529C745.41,122.234,738.661,124.159,730.211,124.159
							L730.211,124.159z"/>
					</g>
				</g>
			</g>
		</g>
		<g id="vscode">
			<g>
				<path fill="#0066B8" d="M516.762,146.689c-2.388-0.51-4.44-0.761-6.171-0.761c-4.096,0-6.148,2.146-6.148,6.433v4.602h11.512
					v3.79h-11.512v18.649h-4.63v-18.649h-8.442v-3.79h8.442v-4.34c0-6.989,3.646-10.489,10.934-10.489
					c1.806,0,3.811,0.212,6.013,0.632v3.924H516.762L516.762,146.689z"/>
				<path fill="#0066B8" d="M545.759,166.063c0,2.039-0.286,3.907-0.864,5.608c-0.571,1.698-1.4,3.155-2.481,4.365
					c-1.081,1.213-2.398,2.153-3.939,2.823c-1.562,0.668-3.317,1.008-5.276,1.008c-1.883,0-3.57-0.293-5.063-0.875
					c-1.483-0.586-2.754-1.443-3.792-2.58c-1.039-1.13-1.834-2.531-2.382-4.204c-0.547-1.681-0.819-3.608-0.819-5.78
					c0-2.039,0.293-3.904,0.858-5.58c0.578-1.685,1.408-3.132,2.485-4.341c1.08-1.214,2.395-2.153,3.941-2.823
					c1.553-0.67,3.313-1.008,5.281-1.008c1.88,0,3.57,0.292,5.063,0.875c1.488,0.585,2.75,1.437,3.789,2.563
					c1.039,1.13,1.834,2.523,2.386,4.201C545.482,161.979,545.759,163.896,545.759,166.063z M541.102,166.273
					c0-1.623-0.175-3.043-0.532-4.248c-0.359-1.207-0.868-2.222-1.53-3.037c-0.67-0.813-1.468-1.415-2.42-1.833
					c-0.955-0.404-2.012-0.614-3.18-0.614c-1.359,0-2.523,0.266-3.492,0.803c-0.971,0.526-1.758,1.244-2.378,2.133
					c-0.62,0.89-1.073,1.918-1.359,3.097s-0.433,2.411-0.433,3.702c0,1.617,0.182,3.043,0.533,4.257
					c0.358,1.224,0.864,2.233,1.53,3.05c0.665,0.813,1.46,1.416,2.405,1.831c0.943,0.407,2.008,0.612,3.196,0.612
					c1.358,0,2.521-0.262,3.488-0.799c0.971-0.528,1.766-1.24,2.378-2.133c0.62-0.886,1.081-1.918,1.359-3.096
					C540.962,168.818,541.102,167.578,541.102,166.273z"/>
				<path fill="#0066B8" d="M553.421,153.146h4.156l0.132,4.838c1.548-1.864,3.078-3.219,4.588-4.059
					c1.506-0.833,3.026-1.259,4.561-1.259c2.72,0,4.783,0.883,6.185,2.64c1.405,1.758,2.046,4.379,1.945,7.838h-4.603
					c0.057-2.302-0.278-3.961-1.004-5c-0.722-1.035-1.785-1.563-3.18-1.563c-0.613,0-1.229,0.107-1.848,0.328
					c-0.62,0.223-1.263,0.564-1.907,1.046c-0.658,0.483-1.35,1.103-2.081,1.848c-0.731,0.753-1.514,1.659-2.344,2.727v16.866h-4.602
					L553.421,153.146L553.421,153.146z"/>
				<path fill="#0066B8" d="M636.38,145.227l-11.608,34.17h-6.274l-11.349-34.17h5.258l7.37,23.031l2.092,6.746l2.146-6.746
					l7.397-23.031H636.38z"/>
				<path fill="#0066B8" d="M662.55,170.137c0,1.625-0.331,3.051-0.989,4.264c-0.666,1.225-1.584,2.234-2.769,3.045
					c-1.187,0.818-2.601,1.419-4.274,1.822c-1.662,0.395-3.492,0.604-5.5,0.604c-0.91,0-1.811-0.042-2.709-0.104
					c-0.896-0.076-1.761-0.158-2.591-0.259c-0.825-0.102-1.609-0.227-2.336-0.368c-0.73-0.145-1.401-0.291-1.994-0.443V174.2
					c1.305,0.487,2.775,0.868,4.403,1.147c1.632,0.277,3.482,0.418,5.561,0.418c1.5,0,2.771-0.119,3.827-0.359
					c1.054-0.233,1.918-0.582,2.587-1.047c0.674-0.459,1.164-1.021,1.465-1.689c0.307-0.662,0.461-1.415,0.461-2.275
					c0-0.925-0.26-1.713-0.774-2.36c-0.513-0.658-1.187-1.244-2.021-1.75c-0.834-0.522-1.793-0.986-2.866-1.415
					c-1.073-0.43-2.161-0.868-3.283-1.321c-1.116-0.453-2.203-0.944-3.277-1.478c-1.073-0.527-2.028-1.154-2.864-1.881
					c-0.838-0.717-1.515-1.567-2.022-2.551c-0.521-0.97-0.772-2.134-0.772-3.479c0-1.165,0.239-2.315,0.73-3.451
					c0.488-1.13,1.248-2.142,2.273-3.021c1.03-0.877,2.35-1.59,3.96-2.137c1.613-0.533,3.534-0.813,5.767-0.813
					c0.571,0,1.198,0.027,1.868,0.072c0.669,0.054,1.353,0.127,2.032,0.228c0.687,0.091,1.369,0.206,2.031,0.324
					c0.674,0.126,1.297,0.255,1.869,0.395v4.183c-1.343-0.383-2.685-0.676-4.022-0.875c-1.347-0.205-2.644-0.299-3.897-0.299
					c-2.667,0-4.629,0.442-5.885,1.332c-1.251,0.889-1.875,2.084-1.875,3.584c0,0.924,0.251,1.711,0.773,2.377
					c0.517,0.666,1.188,1.258,2.021,1.777c0.837,0.516,1.792,0.993,2.865,1.426c1.074,0.418,2.161,0.861,3.283,1.314
					c1.115,0.453,2.207,0.951,3.28,1.492c1.07,0.535,2.02,1.178,2.869,1.916c0.829,0.742,1.513,1.61,2.02,2.604
					C662.299,167.605,662.55,168.784,662.55,170.137z"/>
				<path fill="#0066B8" d="M691.938,178.113c-2.743,1.137-5.603,1.701-8.601,1.701c-4.828,0-8.537-1.438-11.124-4.322
					c-2.594-2.891-3.884-7.154-3.884-12.803c0-2.735,0.356-5.207,1.074-7.424c0.711-2.211,1.731-4.09,3.054-5.635
					c1.325-1.544,2.929-2.732,4.814-3.568c1.886-0.83,3.99-1.256,6.326-1.256c1.579,0,3.055,0.133,4.42,0.404
					c1.36,0.266,2.657,0.684,3.92,1.241v4.573c-1.241-0.676-2.519-1.195-3.843-1.556c-1.325-0.362-2.771-0.536-4.344-0.536
					c-1.601,0-3.05,0.304-4.351,0.902c-1.297,0.604-2.409,1.475-3.313,2.611c-0.91,1.14-1.604,2.537-2.092,4.183
					c-0.491,1.652-0.732,3.528-0.732,5.642c0,4.428,0.896,7.764,2.698,10.012c1.792,2.249,4.421,3.375,7.894,3.375
					c1.461,0,2.864-0.176,4.211-0.521c1.339-0.338,2.629-0.819,3.869-1.419v4.395H691.938z"/>
				<path fill="#0066B8" d="M722.398,166.063c0,2.039-0.285,3.907-0.864,5.608c-0.564,1.698-1.401,3.155-2.477,4.365
					c-1.087,1.213-2.397,2.153-3.938,2.823c-1.563,0.668-3.322,1.008-5.285,1.008c-1.883,0-3.565-0.293-5.059-0.875
					c-1.488-0.586-2.75-1.443-3.789-2.58c-1.039-1.13-1.837-2.531-2.386-4.204c-0.544-1.681-0.818-3.608-0.818-5.78
					c0-2.039,0.29-3.904,0.861-5.58c0.578-1.685,1.404-3.132,2.481-4.341c1.08-1.214,2.398-2.153,3.946-2.823
					s3.308-1.008,5.276-1.008c1.88,0,3.57,0.292,5.063,0.875c1.484,0.585,2.754,1.437,3.792,2.563
					c1.039,1.13,1.834,2.523,2.382,4.201C722.12,161.979,722.398,163.896,722.398,166.063z M717.745,166.273
					c0-1.623-0.178-3.043-0.533-4.248c-0.358-1.211-0.865-2.222-1.534-3.037c-0.663-0.813-1.464-1.415-2.416-1.833
					c-0.952-0.404-2.012-0.614-3.176-0.614c-1.359,0-2.523,0.266-3.497,0.803c-0.965,0.526-1.76,1.244-2.377,2.133
					c-0.621,0.89-1.074,1.918-1.359,3.097c-0.29,1.179-0.433,2.411-0.433,3.702c0,1.617,0.178,3.043,0.537,4.257
					c0.354,1.224,0.859,2.233,1.525,3.05c0.666,0.813,1.466,1.416,2.405,1.831c0.945,0.407,2.005,0.612,3.197,0.612
					c1.363,0,2.517-0.262,3.493-0.799c0.969-0.528,1.76-1.24,2.377-2.133c0.628-0.886,1.081-1.918,1.367-3.096
					C717.605,168.818,717.745,167.578,717.745,166.273z"/>
				<path fill="#0066B8" d="M727.655,166.818c0-2.229,0.304-4.211,0.914-5.947c0.608-1.729,1.478-3.2,2.601-4.393
					c1.126-1.192,2.475-2.1,4.059-2.72c1.574-0.616,3.336-0.928,5.271-0.928c0.837,0,1.667,0.056,2.472,0.157
					c0.811,0.104,1.602,0.271,2.393,0.498V142.45h4.57v36.952h-4.078l-0.161-4.973c-1.27,1.853-2.649,3.215-4.127,4.101
					c-1.485,0.893-3.089,1.336-4.812,1.336c-1.503,0-2.82-0.314-3.961-0.945c-1.144-0.627-2.092-1.513-2.852-2.649
					c-0.76-1.144-1.331-2.514-1.715-4.119C727.844,170.557,727.655,168.777,727.655,166.818z M732.306,166.532
					c0,3.173,0.469,5.543,1.402,7.098c0.938,1.563,2.252,2.343,3.96,2.343c1.15,0,2.367-0.521,3.646-1.548
					c1.274-1.024,2.628-2.555,4.039-4.573v-12.181c-0.748-0.349-1.578-0.62-2.484-0.802c-0.906-0.188-1.803-0.271-2.691-0.271
					c-2.476,0-4.406,0.803-5.79,2.405C733,160.605,732.306,163.116,732.306,166.532z"/>
				<path fill="#0066B8" d="M780.599,164.887c0,0.648-0.01,1.187-0.023,1.618c-0.021,0.438-0.052,0.847-0.08,1.233h-18.431
					c0,2.685,0.745,4.74,2.244,6.182c1.499,1.434,3.66,2.157,6.483,2.157c0.768,0,1.534-0.038,2.302-0.095
					c0.768-0.06,1.514-0.143,2.225-0.246c0.715-0.105,1.4-0.225,2.054-0.354c0.651-0.133,1.258-0.275,1.815-0.433v3.741
					c-1.237,0.349-2.636,0.631-4.197,0.844c-1.563,0.223-3.18,0.331-4.846,0.331c-2.253,0-4.184-0.308-5.809-0.917
					c-1.617-0.606-2.949-1.492-3.987-2.653c-1.032-1.157-1.799-2.583-2.301-4.26c-0.495-1.685-0.746-3.587-0.746-5.714
					c0-1.848,0.269-3.598,0.802-5.243c0.529-1.646,1.305-3.092,2.325-4.345c1.019-1.247,2.271-2.229,3.754-2.963
					c1.479-0.731,3.158-1.104,5.041-1.104c1.834,0,3.451,0.29,4.867,0.86c1.408,0.572,2.602,1.393,3.565,2.455
					c0.966,1.053,1.705,2.328,2.192,3.834C780.352,161.338,780.599,163.02,780.599,164.887z M775.868,164.23
					c0.049-1.168-0.063-2.233-0.342-3.203c-0.278-0.965-0.712-1.799-1.294-2.492c-0.586-0.693-1.313-1.244-2.186-1.639
					c-0.872-0.384-1.883-0.586-3.033-0.586c-0.99,0-1.899,0.198-2.719,0.571c-0.818,0.388-1.527,0.929-2.12,1.625
					c-0.593,0.697-1.073,1.533-1.437,2.511c-0.362,0.977-0.592,2.045-0.676,3.213H775.868z"/>
			</g>
		</g>
	</g>
	<g id="Icon">
		<g id="Masked_icon">
			<g>
				<defs>
					<path id="SVGID_1_" d="M4.438,13.766v173.899h173.899V13.766H4.438z M169.962,164.164c0,2.696-1.572,5.197-4.009,6.371
						l-15.36,7.383c-0.945,0.465-2.004,0.698-3.055,0.698c-1.308,0-2.585-0.357-3.701-1.045c-0.348-0.21-0.698-0.465-1.027-0.766
						c-0.042-0.037-0.088-0.078-0.119-0.111c-0.029-0.022-0.062-0.052-0.091-0.079l-27.891-25.437l-11.203,8.495
						c-0.973,0.735-2.125,1.125-3.343,1.125c-1.37,0-2.693-0.51-3.709-1.441l-4.106-3.731c-1.15-1.043-1.806-2.533-1.806-4.084
						c-0.004-1.555,0.65-3.041,1.799-4.084l9.147-8.347l-9.147-8.339c-1.144-1.046-1.799-2.531-1.799-4.085
						c0-1.553,0.659-3.039,1.806-4.084l4.106-3.732c1.017-0.927,2.335-1.439,3.709-1.439c1.217,0,2.37,0.39,3.343,1.123
						l11.203,8.496l27.903-25.446l0.007-0.002c0.072-0.072,0.147-0.138,0.178-0.167c0.211-0.188,0.424-0.359,0.634-0.512
						c1.202-0.859,2.622-1.315,4.104-1.315c1.052,0,2.107,0.24,3.068,0.699l15.353,7.383c2.435,1.169,4.009,3.675,4.008,6.379
						v50.096H169.962z"/>
				</defs>
				<clipPath id="SVGID_2_">
					<use xlink:href="#SVGID_1_"  overflow="visible"/>
				</clipPath>
				<g id="CleanCSS_Icon" clip-path="url(#SVGID_2_)">
					<path fill="#27AAE1" d="M91.496,13.766c-48.02,0-86.95,38.929-86.95,86.95s38.93,86.95,86.95,86.95
						c48.022,0,86.949-38.929,86.949-86.95S139.518,13.766,91.496,13.766z M90.928,178.614c-43.021,0-77.898-34.876-77.898-77.896
						c0-43.025,34.876-77.902,77.898-77.902c43.022,0,77.896,34.877,77.896,77.902C168.825,143.738,133.951,178.614,90.928,178.614z
						"/>
					<path fill="#27AAE1" d="M46.934,117.995c0,27.354,22.544,43.85,43.995,43.85c21.448,0,43.998-16.496,43.995-43.85
						c0-21.519-43.995-69.741-43.995-78.405C90.928,48.255,46.934,96.858,46.934,117.995z M90.928,153.175
						c-16.204,0-33.236-15.151-33.236-35.902c0-16.031,33.236-52.893,33.236-59.464c0,6.571,33.238,43.148,33.238,59.464
						C124.166,138.025,107.132,153.175,90.928,153.175z"/>
				</g>
			</g>
		</g>
		<path id="VSCode_Icon" fill="none" stroke="#0066B8" stroke-width="5" d="M165.956,107.691l-15.353-7.381
			c-0.961-0.459-2.015-0.698-3.068-0.698c-1.481,0-2.901,0.455-4.104,1.313c-0.21,0.153-0.423,0.323-0.634,0.511
			c-0.03,0.029-0.106,0.096-0.178,0.167l-0.007,0.003l-27.903,25.447l-11.203-8.498c-0.973-0.733-2.125-1.121-3.343-1.121
			c-1.375,0-2.693,0.513-3.709,1.438l-4.106,3.734c-1.147,1.043-1.806,2.531-1.806,4.084c0,1.552,0.656,3.037,1.799,4.083
			l9.147,8.341l-9.147,8.348c-1.149,1.042-1.803,2.528-1.799,4.081c0,1.551,0.656,3.041,1.806,4.086l4.106,3.73
			c1.017,0.933,2.341,1.44,3.708,1.44c1.218,0,2.371-0.39,3.344-1.125l11.203-8.494l27.891,25.438
			c0.029,0.025,0.064,0.055,0.091,0.079c0.03,0.031,0.077,0.072,0.119,0.109c0.329,0.302,0.679,0.556,1.027,0.766
			c1.114,0.688,2.393,1.046,3.701,1.046c1.051,0,2.11-0.232,3.055-0.696l15.36-7.386c2.437-1.174,4.009-3.675,4.009-6.371v-50.094
			C169.965,111.37,168.391,108.862,165.956,107.691z M146.489,127.055v24.114l-15.894-12.058L146.489,127.055z"/>
	</g>
</g>
</svg>
