<?xml version="1.0" encoding="utf-8"?>
<!-- Generator: Adobe Illustrator 16.0.3, SVG Export Plug-In . SVG Version: 6.00 Build 0)  -->
<!DOCTYPE svg PUBLIC "-//W3C//DTD SVG 1.1//EN" "http://www.w3.org/Graphics/SVG/1.1/DTD/svg11.dtd">
<svg version="1.1" xmlns="http://www.w3.org/2000/svg" xmlns:xlink="http://www.w3.org/1999/xlink" x="0px" y="0px"
	 width="235.545px" height="62.75px" viewBox="0 0 235.545 62.75" enable-background="new 0 0 235.545 62.75" xml:space="preserve">
<g id="Capa_1">
	<g id="Capa_1_1_">
		<g id="Page-1_1_">
			<g id="logo-4_1_" transform="translate(0.000000, -1.000000)">
				<g id="label_1_" transform="translate(34.000000, 0.300000)">
					<path id="Shape_17_" fill="#27AAE1" d="M21.895,27.496c0-1.431,0.247-2.782,0.741-4.058c0.494-1.273,1.189-2.379,2.086-3.314
						c0.897-0.937,1.956-1.678,3.179-2.223c1.222-0.546,2.561-0.819,4.017-0.819c1.846,0,3.464,0.416,4.855,1.248
						s2.45,1.989,3.178,3.471l-1.911,0.624c-0.599-1.117-1.457-1.995-2.574-2.633c-1.118-0.637-2.34-0.955-3.666-0.955
						c-1.118,0-2.158,0.221-3.12,0.663c-0.962,0.442-1.8,1.053-2.515,1.833c-0.716,0.78-1.274,1.697-1.677,2.75
						c-0.403,1.054-0.604,2.19-0.604,3.413c0,1.223,0.214,2.373,0.644,3.451c0.429,1.078,1,2.017,1.716,2.808
						c0.715,0.795,1.554,1.424,2.516,1.893c0.961,0.469,1.989,0.701,3.081,0.701c0.702,0,1.397-0.104,2.086-0.312
						c0.688-0.209,1.326-0.481,1.911-0.819s1.092-0.733,1.521-1.188c0.429-0.454,0.722-0.931,0.877-1.425l1.911,0.547
						c-0.26,0.701-0.657,1.359-1.189,1.971c-0.533,0.61-1.164,1.139-1.892,1.58c-0.729,0.441-1.528,0.785-2.398,1.032
						c-0.872,0.247-1.774,0.37-2.71,0.37c-1.43,0-2.756-0.279-3.978-0.838c-1.223-0.56-2.282-1.326-3.179-2.301
						c-0.897-0.978-1.605-2.101-2.125-3.375C22.153,30.317,21.895,28.951,21.895,27.496L21.895,27.496z"/>
					<path id="Shape_16_" fill="#27AAE1" d="M46.747,9.923v23.935c0,0.754,0.215,1.353,0.644,1.794
						c0.429,0.442,1.02,0.663,1.774,0.663c0.286,0,0.63-0.032,1.034-0.098c0.403-0.064,0.773-0.162,1.111-0.295l0.39,1.563
						c-0.442,0.183-0.988,0.331-1.638,0.447c-0.65,0.117-1.209,0.177-1.677,0.177c-1.092,0-1.97-0.332-2.633-0.994
						c-0.663-0.664-0.994-1.554-0.994-2.672V9.923H46.747z"/>
					<path id="Shape_15_" fill="#27AAE1" d="M62.921,38.102c-1.43,0-2.756-0.278-3.978-0.838c-1.223-0.559-2.282-1.326-3.179-2.301
						c-0.897-0.977-1.599-2.1-2.106-3.374c-0.507-1.273-0.76-2.64-0.76-4.095c0-1.431,0.253-2.775,0.76-4.038
						c0.507-1.26,1.202-2.364,2.086-3.313c0.884-0.949,1.937-1.697,3.159-2.243c1.223-0.546,2.535-0.819,3.939-0.819
						c1.43,0,2.75,0.28,3.957,0.838c1.209,0.559,2.256,1.313,3.141,2.262c0.883,0.949,1.58,2.054,2.086,3.314
						c0.507,1.262,0.76,2.594,0.76,3.997c0,0.131-0.006,0.293-0.02,0.487c-0.014,0.195-0.02,0.318-0.02,0.37h-17.82
						c0.078,1.17,0.351,2.256,0.819,3.257c0.468,1.001,1.059,1.866,1.774,2.595s1.541,1.299,2.477,1.715s1.937,0.625,3.002,0.625
						c0.702,0,1.397-0.099,2.088-0.293c0.688-0.193,1.326-0.461,1.91-0.799c0.586-0.338,1.105-0.748,1.561-1.229
						c0.456-0.481,0.813-1.01,1.072-1.58l1.717,0.469c-0.313,0.729-0.748,1.396-1.307,2.009c-0.56,0.61-1.209,1.138-1.951,1.58
						c-0.74,0.44-1.553,0.785-2.438,1.032C64.768,37.979,63.857,38.102,62.921,38.102L62.921,38.102z M70.878,26.793
						c-0.078-1.194-0.345-2.288-0.799-3.275c-0.455-0.987-1.041-1.839-1.756-2.555c-0.715-0.714-1.541-1.273-2.477-1.677
						c-0.936-0.402-1.938-0.604-3.004-0.604c-1.065,0-2.066,0.202-3.002,0.604c-0.936,0.403-1.762,0.963-2.477,1.677
						c-0.715,0.716-1.287,1.574-1.716,2.574c-0.429,1.002-0.683,2.087-0.761,3.257L70.878,26.793L70.878,26.793z"/>
					<path id="Shape_14_" fill="#27AAE1" d="M82.07,38.102c-0.937,0-1.813-0.161-2.633-0.485s-1.534-0.769-2.146-1.326
						c-0.61-0.56-1.086-1.223-1.422-1.987c-0.339-0.769-0.508-1.595-0.508-2.478c0-0.885,0.208-1.69,0.624-2.418
						c0.416-0.729,1-1.358,1.755-1.893c0.754-0.533,1.645-0.949,2.672-1.248c1.026-0.299,2.164-0.448,3.412-0.448
						c1.092,0,2.196,0.097,3.315,0.292c1.117,0.195,2.117,0.463,3.002,0.801v-1.99c0-1.923-0.545-3.45-1.639-4.581
						c-1.092-1.132-2.572-1.697-4.445-1.697c-1.014,0-2.074,0.209-3.178,0.624c-1.105,0.416-2.217,1.015-3.336,1.794l-0.779-1.325
						c2.626-1.769,5.096-2.652,7.41-2.652c2.443,0,4.373,0.708,5.791,2.125c1.418,1.418,2.125,3.374,2.125,5.871v9.904
						c0,0.65,0.273,0.977,0.82,0.977v1.756c-0.131,0.023-0.254,0.037-0.371,0.037h-0.33c-0.469,0-0.896-0.16-1.287-0.486
						c-0.391-0.324-0.586-0.746-0.586-1.268v-1.678c-0.936,1.223-2.125,2.158-3.566,2.809C85.326,37.781,83.761,38.102,82.07,38.102
						L82.07,38.102z M82.46,36.543c1.508,0,2.898-0.278,4.174-0.838c1.272-0.56,2.223-1.319,2.848-2.28
						c0.441-0.521,0.662-1.041,0.662-1.562v-3.589c-1.977-0.728-4.004-1.092-6.083-1.092c-2.028,0-3.666,0.416-4.914,1.248
						c-1.248,0.833-1.872,1.925-1.872,3.276c0,0.676,0.13,1.313,0.39,1.91c0.26,0.6,0.625,1.111,1.092,1.541
						c0.469,0.428,1.021,0.768,1.658,1.014C81.05,36.421,81.732,36.543,82.46,36.543L82.46,36.543z"/>
					<path id="Shape_13_" fill="#27AAE1" d="M114.636,37.755h-1.949V26.403c0-2.626-0.371-4.537-1.111-5.733
						c-0.741-1.195-1.932-1.794-3.567-1.794c-0.858,0-1.711,0.156-2.556,0.468c-0.846,0.312-1.625,0.755-2.34,1.326
						c-0.717,0.572-1.346,1.242-1.893,2.009s-0.949,1.593-1.209,2.477v12.599h-1.949V17.433h1.793v4.835
						c0.416-0.779,0.937-1.487,1.562-2.125c0.623-0.637,1.312-1.183,2.065-1.639c0.754-0.454,1.566-0.805,2.438-1.053
						c0.871-0.247,1.763-0.37,2.672-0.37c2.209,0,3.771,0.774,4.681,2.32c0.91,1.547,1.365,3.764,1.365,6.649v11.705H114.636z"/>
					<polygon id="Shape_12_" fill="#27AAE1" points="120.058,28.002 120.058,26.209 131.288,26.209 131.288,28.002 					"/>
					<path id="Shape_11_" fill="#27AAE1" d="M135.577,27.496c0-1.431,0.247-2.782,0.74-4.058c0.494-1.273,1.188-2.379,2.088-3.314
						c0.896-0.937,1.955-1.678,3.178-2.223c1.225-0.546,2.563-0.819,4.02-0.819c1.846,0,3.463,0.416,4.854,1.248
						c1.393,0.832,2.449,1.989,3.18,3.471l-1.91,0.624c-0.6-1.117-1.457-1.995-2.574-2.633c-1.118-0.637-2.34-0.955-3.666-0.955
						c-1.118,0-2.158,0.221-3.12,0.663c-0.962,0.442-1.802,1.053-2.517,1.833c-0.715,0.78-1.272,1.697-1.678,2.75
						c-0.402,1.054-0.604,2.19-0.604,3.413c0,1.223,0.215,2.373,0.645,3.451s1,2.017,1.715,2.808
						c0.717,0.795,1.555,1.424,2.518,1.893c0.961,0.469,1.988,0.701,3.08,0.701c0.703,0,1.396-0.104,2.088-0.312
						c0.688-0.209,1.324-0.481,1.91-0.819c0.584-0.338,1.093-0.733,1.521-1.188c0.431-0.454,0.724-0.931,0.877-1.425l1.912,0.547
						c-0.261,0.701-0.656,1.359-1.188,1.971c-0.533,0.61-1.164,1.139-1.894,1.58c-0.728,0.441-1.526,0.785-2.397,1.032
						s-1.773,0.37-2.709,0.37c-1.433,0-2.759-0.279-3.979-0.838c-1.224-0.56-2.281-1.326-3.179-2.301
						c-0.897-0.978-1.606-2.101-2.127-3.375C135.837,30.317,135.577,28.951,135.577,27.496L135.577,27.496z"/>
					<path id="Shape_10_" fill="#27AAE1" d="M164.517,38.102c-1.561,0-3.057-0.26-4.484-0.778c-1.432-0.521-2.68-1.3-3.743-2.341
						l0.976-1.325c1.092,0.987,2.223,1.717,3.394,2.185c1.17,0.469,2.457,0.703,3.86,0.703c1.77,0,3.19-0.371,4.271-1.111
						c1.079-0.741,1.618-1.773,1.618-3.103c0-0.623-0.137-1.149-0.409-1.58c-0.272-0.428-0.683-0.791-1.229-1.092
						c-0.545-0.299-1.222-0.564-2.026-0.799c-0.808-0.234-1.741-0.48-2.81-0.74c-1.144-0.261-2.14-0.521-2.982-0.78
						c-0.844-0.259-1.54-0.571-2.086-0.937c-0.547-0.366-0.956-0.806-1.229-1.326c-0.272-0.521-0.409-1.183-0.409-1.989
						c0-1.013,0.194-1.896,0.584-2.651c0.392-0.754,0.931-1.378,1.619-1.872c0.688-0.493,1.48-0.864,2.379-1.111
						c0.896-0.247,1.854-0.37,2.866-0.37c1.586,0,2.99,0.267,4.211,0.799c1.224,0.534,2.173,1.215,2.849,2.047l-1.092,1.053
						c-0.677-0.779-1.556-1.364-2.634-1.755c-1.077-0.39-2.229-0.585-3.45-0.585c-0.754,0-1.463,0.078-2.125,0.234
						c-0.664,0.156-1.242,0.403-1.736,0.741c-0.493,0.338-0.885,0.773-1.17,1.307c-0.286,0.533-0.43,1.163-0.43,1.891
						c0,0.599,0.098,1.08,0.293,1.443c0.194,0.364,0.508,0.677,0.937,0.938c0.431,0.26,0.981,0.486,1.657,0.682
						c0.677,0.195,1.481,0.41,2.418,0.644c1.272,0.312,2.404,0.611,3.395,0.897c0.988,0.285,1.813,0.638,2.477,1.053
						c0.664,0.416,1.17,0.91,1.521,1.482c0.352,0.571,0.525,1.299,0.525,2.184c0,1.82-0.709,3.271-2.127,4.35
						C168.772,37.563,166.882,38.102,164.517,38.102L164.517,38.102z"/>
					<path id="Shape_9_" fill="#27AAE1" d="M183.274,38.102c-1.562,0-3.055-0.26-4.484-0.778c-1.432-0.521-2.68-1.3-3.744-2.341
						l0.977-1.325c1.093,0.987,2.224,1.717,3.394,2.185c1.17,0.469,2.457,0.703,3.86,0.703c1.769,0,3.189-0.371,4.271-1.111
						c1.081-0.741,1.619-1.773,1.619-3.103c0-0.623-0.138-1.149-0.41-1.58c-0.271-0.428-0.682-0.791-1.229-1.092
						c-0.545-0.299-1.223-0.564-2.026-0.799c-0.808-0.234-1.742-0.48-2.81-0.74c-1.145-0.261-2.139-0.521-2.981-0.78
						c-0.845-0.259-1.541-0.571-2.086-0.937c-0.547-0.365-0.957-0.806-1.229-1.326c-0.271-0.52-0.41-1.183-0.41-1.989
						c0-1.013,0.195-1.896,0.586-2.651c0.391-0.754,0.93-1.378,1.619-1.872c0.688-0.493,1.479-0.864,2.379-1.111
						c0.896-0.247,1.854-0.37,2.865-0.37c1.586,0,2.989,0.267,4.213,0.799c1.222,0.534,2.17,1.215,2.848,2.047l-1.094,1.053
						c-0.676-0.779-1.553-1.364-2.631-1.755c-1.08-0.39-2.229-0.585-3.453-0.585c-0.754,0-1.461,0.078-2.125,0.234
						c-0.662,0.156-1.241,0.403-1.734,0.741c-0.494,0.338-0.885,0.773-1.17,1.307c-0.287,0.533-0.43,1.163-0.43,1.891
						c0,0.599,0.098,1.08,0.293,1.443c0.195,0.364,0.507,0.677,0.936,0.938c0.43,0.26,0.98,0.486,1.658,0.682
						c0.676,0.195,1.48,0.41,2.418,0.644c1.273,0.312,2.404,0.611,3.393,0.897c0.99,0.285,1.813,0.638,2.479,1.053
						c0.662,0.416,1.17,0.91,1.521,1.482c0.352,0.571,0.525,1.299,0.525,2.184c0,1.82-0.709,3.271-2.126,4.35
						C187.532,37.563,185.642,38.102,183.274,38.102L183.274,38.102z"/>
				</g>
			</g>
		</g>
	</g>
	<g id="Capa_3_1_">
		<g>
			<path fill="#0078D7" d="M147.956,43.91c-0.669-0.143-1.244-0.213-1.729-0.213c-1.147,0-1.722,0.601-1.722,1.802v1.289h3.224
				v1.062h-3.224v5.224h-1.297V47.85h-2.365v-1.062h2.365v-1.216c0-1.958,1.021-2.938,3.063-2.938c0.506,0,1.067,0.06,1.684,0.177
				V43.91L147.956,43.91z"/>
			<path fill="#0078D7" d="M156.079,49.337c0,0.571-0.08,1.095-0.242,1.571c-0.16,0.476-0.393,0.884-0.695,1.223
				c-0.303,0.34-0.672,0.604-1.104,0.791c-0.437,0.188-0.929,0.282-1.479,0.282c-0.527,0-1-0.082-1.418-0.245
				c-0.416-0.164-0.771-0.404-1.062-0.723c-0.291-0.316-0.513-0.709-0.667-1.178c-0.153-0.47-0.23-1.01-0.23-1.619
				c0-0.571,0.082-1.094,0.241-1.563c0.162-0.472,0.394-0.877,0.696-1.216c0.303-0.34,0.671-0.604,1.105-0.791
				s0.928-0.282,1.479-0.282c0.526,0,1,0.082,1.418,0.245c0.417,0.164,0.771,0.402,1.062,0.718s0.514,0.707,0.668,1.177
				C156.002,48.193,156.079,48.73,156.079,49.337z M154.774,49.396c0-0.455-0.049-0.852-0.149-1.19s-0.243-0.622-0.429-0.851
				c-0.187-0.227-0.411-0.396-0.678-0.513c-0.267-0.114-0.563-0.172-0.89-0.172c-0.381,0-0.707,0.074-0.979,0.224
				c-0.271,0.148-0.492,0.349-0.666,0.598s-0.301,0.537-0.381,0.867s-0.121,0.676-0.121,1.037c0,0.453,0.051,0.853,0.15,1.193
				c0.1,0.342,0.242,0.626,0.428,0.854c0.187,0.228,0.41,0.397,0.674,0.513c0.265,0.114,0.563,0.172,0.896,0.172
				c0.381,0,0.706-0.073,0.978-0.224c0.271-0.148,0.494-0.348,0.666-0.598c0.174-0.248,0.302-0.537,0.381-0.867
				C154.735,50.109,154.774,49.762,154.774,49.396z"/>
			<path fill="#0078D7" d="M158.226,45.719h1.164l0.037,1.355c0.434-0.522,0.862-0.901,1.285-1.137
				c0.422-0.233,0.848-0.352,1.277-0.352c0.762,0,1.34,0.247,1.732,0.739c0.394,0.493,0.574,1.227,0.545,2.196h-1.289
				c0.016-0.645-0.078-1.11-0.281-1.401c-0.202-0.29-0.5-0.437-0.891-0.437c-0.171,0-0.343,0.03-0.517,0.092
				c-0.173,0.062-0.353,0.158-0.534,0.293c-0.184,0.135-0.378,0.308-0.583,0.517c-0.205,0.211-0.424,0.465-0.657,0.763v4.725h-1.289
				V45.719L158.226,45.719z"/>
			<path fill="#0078D7" d="M181.465,43.5l-3.252,9.572h-1.758l-3.179-9.572h1.473l2.064,6.452l0.586,1.89l0.602-1.89l2.072-6.452
				H181.465z"/>
			<path fill="#0078D7" d="M188.796,50.479c0,0.455-0.093,0.854-0.277,1.194c-0.187,0.343-0.444,0.626-0.776,0.853
				c-0.332,0.229-0.729,0.397-1.197,0.51c-0.466,0.111-0.979,0.169-1.541,0.169c-0.255,0-0.507-0.011-0.759-0.029
				c-0.251-0.021-0.493-0.044-0.725-0.073c-0.232-0.028-0.451-0.063-0.655-0.103c-0.205-0.04-0.392-0.081-0.558-0.124v-1.26
				c0.365,0.137,0.777,0.244,1.233,0.322c0.457,0.078,0.976,0.117,1.558,0.117c0.42,0,0.776-0.033,1.072-0.101
				c0.295-0.065,0.537-0.163,0.725-0.293c0.188-0.129,0.326-0.286,0.41-0.474c0.086-0.185,0.129-0.396,0.129-0.637
				c0-0.259-0.072-0.479-0.217-0.662c-0.144-0.184-0.332-0.348-0.566-0.49c-0.234-0.146-0.502-0.276-0.803-0.396
				s-0.606-0.243-0.92-0.37c-0.313-0.127-0.617-0.265-0.919-0.414c-0.3-0.147-0.567-0.323-0.802-0.526
				c-0.234-0.202-0.424-0.44-0.566-0.715c-0.146-0.272-0.217-0.598-0.217-0.975c0-0.326,0.067-0.648,0.205-0.967
				c0.137-0.316,0.35-0.6,0.637-0.846c0.289-0.246,0.658-0.445,1.109-0.598c0.452-0.15,0.99-0.228,1.615-0.228
				c0.16,0,0.336,0.008,0.523,0.021c0.188,0.015,0.379,0.035,0.57,0.063c0.193,0.025,0.384,0.058,0.57,0.091
				c0.188,0.035,0.363,0.071,0.523,0.11v1.172c-0.376-0.107-0.752-0.189-1.127-0.245c-0.377-0.058-0.74-0.084-1.092-0.084
				c-0.747,0-1.297,0.124-1.648,0.373c-0.351,0.249-0.526,0.584-0.526,1.004c0,0.259,0.071,0.479,0.217,0.666
				c0.144,0.187,0.333,0.353,0.567,0.498s0.502,0.278,0.802,0.399c0.301,0.118,0.606,0.242,0.92,0.369
				c0.312,0.127,0.618,0.266,0.919,0.418c0.3,0.15,0.566,0.33,0.803,0.537c0.233,0.208,0.424,0.451,0.566,0.729
				C188.726,49.77,188.796,50.1,188.796,50.479z"/>
			<path fill="#0078D7" d="M197.028,52.713c-0.768,0.318-1.569,0.477-2.409,0.477c-1.353,0-2.392-0.403-3.116-1.211
				c-0.727-0.81-1.088-2.004-1.088-3.586c0-0.767,0.1-1.459,0.301-2.08c0.199-0.619,0.485-1.146,0.855-1.578
				c0.371-0.433,0.82-0.766,1.349-1c0.528-0.233,1.118-0.352,1.772-0.352c0.443,0,0.856,0.037,1.238,0.113
				c0.381,0.074,0.745,0.191,1.098,0.348v1.281c-0.348-0.189-0.705-0.335-1.076-0.436s-0.776-0.15-1.217-0.15
				c-0.448,0-0.854,0.085-1.219,0.253c-0.363,0.169-0.674,0.413-0.927,0.731c-0.255,0.32-0.45,0.711-0.586,1.172
				c-0.138,0.463-0.205,0.988-0.205,1.58c0,1.24,0.251,2.175,0.755,2.805c0.502,0.63,1.239,0.945,2.211,0.945
				c0.41,0,0.803-0.049,1.18-0.145c0.375-0.095,0.736-0.229,1.084-0.398V52.713L197.028,52.713z"/>
			<path fill="#0078D7" d="M205.562,49.337c0,0.571-0.08,1.095-0.242,1.571c-0.159,0.476-0.393,0.884-0.694,1.223
				c-0.304,0.34-0.672,0.604-1.104,0.791c-0.437,0.188-0.93,0.282-1.48,0.282c-0.527,0-0.999-0.082-1.417-0.245
				c-0.417-0.164-0.771-0.404-1.062-0.723c-0.291-0.316-0.514-0.709-0.668-1.178c-0.152-0.47-0.229-1.01-0.229-1.619
				c0-0.571,0.081-1.094,0.241-1.563c0.162-0.472,0.394-0.877,0.695-1.216c0.303-0.34,0.672-0.604,1.106-0.791
				s0.927-0.282,1.479-0.282c0.526,0,1,0.082,1.418,0.245c0.416,0.164,0.771,0.402,1.062,0.718s0.513,0.707,0.667,1.177
				C205.483,48.193,205.562,48.73,205.562,49.337z M204.258,49.396c0-0.455-0.05-0.852-0.149-1.19
				c-0.101-0.339-0.243-0.622-0.43-0.851c-0.186-0.227-0.41-0.396-0.677-0.513c-0.267-0.114-0.563-0.172-0.89-0.172
				c-0.381,0-0.707,0.074-0.979,0.224c-0.271,0.148-0.493,0.349-0.666,0.598c-0.174,0.249-0.301,0.537-0.381,0.867
				c-0.081,0.33-0.121,0.676-0.121,1.037c0,0.453,0.05,0.853,0.15,1.193c0.1,0.342,0.241,0.626,0.428,0.854s0.41,0.397,0.674,0.513
				c0.265,0.114,0.562,0.172,0.896,0.172c0.381,0,0.705-0.073,0.978-0.224c0.271-0.148,0.493-0.348,0.666-0.598
				c0.175-0.248,0.302-0.537,0.382-0.867S204.258,49.762,204.258,49.396z"/>
			<path fill="#0078D7" d="M207.034,49.549c0-0.624,0.085-1.18,0.256-1.666c0.171-0.484,0.414-0.896,0.729-1.23
				c0.315-0.334,0.693-0.588,1.137-0.762c0.441-0.173,0.934-0.26,1.476-0.26c0.234,0,0.466,0.016,0.692,0.044
				c0.227,0.029,0.449,0.076,0.67,0.14v-3.092h1.281v10.351h-1.143l-0.045-1.392c-0.355,0.518-0.742,0.9-1.156,1.148
				c-0.416,0.25-0.865,0.374-1.348,0.374c-0.421,0-0.79-0.088-1.109-0.265c-0.32-0.176-0.586-0.424-0.799-0.742
				c-0.213-0.32-0.373-0.704-0.48-1.154C207.087,50.596,207.034,50.098,207.034,49.549z M208.337,49.469
				c0,0.889,0.131,1.553,0.393,1.988c0.262,0.438,0.631,0.656,1.109,0.656c0.322,0,0.663-0.146,1.021-0.434
				c0.358-0.287,0.736-0.715,1.132-1.281v-3.412c-0.21-0.098-0.442-0.174-0.696-0.225c-0.254-0.052-0.505-0.076-0.754-0.076
				c-0.693,0-1.234,0.225-1.622,0.674C208.531,47.809,208.337,48.512,208.337,49.469z"/>
			<path fill="#0078D7" d="M221.865,49.008c0,0.182-0.003,0.332-0.007,0.453c-0.006,0.123-0.014,0.237-0.022,0.346h-5.163
				c0,0.752,0.209,1.328,0.629,1.731c0.42,0.401,1.025,0.604,1.816,0.604c0.215,0,0.43-0.01,0.645-0.026s0.424-0.04,0.623-0.069
				c0.2-0.029,0.393-0.063,0.575-0.099c0.183-0.037,0.353-0.077,0.509-0.121v1.048c-0.347,0.098-0.738,0.177-1.176,0.236
				c-0.438,0.063-0.891,0.093-1.357,0.093c-0.631,0-1.172-0.086-1.627-0.257c-0.453-0.17-0.826-0.418-1.117-0.743
				c-0.289-0.324-0.504-0.724-0.645-1.193c-0.139-0.472-0.209-1.005-0.209-1.601c0-0.518,0.075-1.008,0.225-1.469
				c0.148-0.461,0.365-0.866,0.651-1.217c0.285-0.349,0.636-0.625,1.052-0.83c0.414-0.205,0.885-0.309,1.412-0.309
				c0.514,0,0.967,0.081,1.363,0.241c0.395,0.161,0.729,0.39,0.999,0.687c0.271,0.295,0.478,0.653,0.614,1.075
				C221.796,48.014,221.865,48.484,221.865,49.008z M220.54,48.824c0.014-0.327-0.018-0.626-0.096-0.897
				c-0.078-0.271-0.199-0.504-0.362-0.698c-0.164-0.195-0.368-0.349-0.612-0.459c-0.244-0.108-0.527-0.164-0.85-0.164
				c-0.277,0-0.532,0.055-0.762,0.16c-0.229,0.108-0.428,0.26-0.594,0.455s-0.3,0.43-0.402,0.703s-0.166,0.573-0.189,0.9H220.54z"/>
		</g>
	</g>
</g>
<g id="Capa_2">
	<circle fill="#FFFFFF" cx="28.813" cy="31.013" r="24.375"/>
	<g id="Capa_2_1_">
		<g id="Capa_4">
			<g>
				<path fill="#27AAE1" d="M28.922,9.484c-12.06,0-21.838,9.778-21.838,21.838c0,12.059,9.778,21.838,21.838,21.838
					c12.061,0,21.837-9.779,21.837-21.838C50.759,19.262,40.983,9.484,28.922,9.484z M28.922,48.457
					c-6.013,0-12.333-4.623-12.333-12.291c0-5.926,12.333-19.551,12.333-21.98c0,2.429,12.333,15.947,12.333,21.98
					C41.256,43.834,34.935,48.457,28.922,48.457z"/>
				<path fill="#27AAE1" d="M19.605,35.963c0,5.818,4.775,10.064,9.317,10.064c4.542,0,9.317-4.246,9.317-10.064
					c0-4.572-9.317-14.827-9.317-16.669C28.922,21.136,19.605,31.47,19.605,35.963z"/>
			</g>
		</g>
		<path fill="#0078D7" stroke="#FFFFFF" d="M49.954,33.277l-4.304-2.068c-0.269-0.129-0.564-0.196-0.86-0.196
			c-0.415,0-0.813,0.128-1.15,0.368c-0.059,0.043-0.117,0.09-0.177,0.144c-0.009,0.009-0.031,0.026-0.05,0.047l-0.002,0.001
			l-7.823,7.133l-3.141-2.381c-0.272-0.207-0.596-0.315-0.937-0.315c-0.385,0-0.755,0.144-1.04,0.403l-1.152,1.046
			c-0.321,0.292-0.506,0.71-0.506,1.146c0,0.434,0.185,0.852,0.505,1.145l2.564,2.336l-2.564,2.342
			c-0.322,0.291-0.506,0.709-0.505,1.143c0,0.436,0.185,0.854,0.506,1.146l1.152,1.045c0.285,0.262,0.655,0.404,1.04,0.404
			c0.341,0,0.665-0.109,0.937-0.314l3.141-2.383l7.819,7.131c0.009,0.008,0.018,0.016,0.025,0.021
			c0.009,0.01,0.021,0.02,0.033,0.031c0.093,0.084,0.191,0.156,0.288,0.217c0.313,0.191,0.671,0.291,1.038,0.291
			c0.295,0,0.591-0.066,0.856-0.195l4.305-2.07c0.683-0.328,1.125-1.029,1.125-1.787V35.066
			C51.079,34.309,50.637,33.605,49.954,33.277z M44.498,38.705v6.76l-4.456-3.381L44.498,38.705z"/>
	</g>
</g>
</svg>
