<?xml version="1.0" encoding="utf-8"?>
<!-- Generator: Adobe Illustrator 16.0.3, SVG Export Plug-In . SVG Version: 6.00 Build 0)  -->
<!DOCTYPE svg PUBLIC "-//W3C//DTD SVG 1.1//EN" "http://www.w3.org/Graphics/SVG/1.1/DTD/svg11.dtd">
<svg version="1.1" id="Capa_1" xmlns="http://www.w3.org/2000/svg" xmlns:xlink="http://www.w3.org/1999/xlink" x="0px" y="0px"
	 width="799.068px" height="212.875px" viewBox="0 0 799.068 212.875" enable-background="new 0 0 799.068 212.875"
	 xml:space="preserve">
<g id="Capa_1_2_">
	<g id="Capa_1_1_">
		<g id="Page-1_1_">
			<g id="logo-4_1_" transform="translate(0.000000, -1.000000)">
				<g id="label_1_" transform="translate(34.000000, 0.300000)">
					<path id="Shape_17_" fill="#27AAE1" d="M154.127,86.296c0-5.106,0.882-9.93,2.646-14.486c1.763-4.544,4.244-8.492,7.446-11.83
						c3.202-3.345,6.982-5.988,11.348-7.934c4.362-1.951,9.142-2.925,14.34-2.925c6.591,0,12.365,1.484,17.331,4.455
						c4.966,2.97,8.746,7.101,11.346,12.391l-6.822,2.229c-2.139-3.988-5.201-7.122-9.189-9.4c-3.99-2.273-8.353-3.408-13.087-3.408
						c-3.99,0-7.702,0.788-11.137,2.365c-3.436,1.579-6.426,3.76-8.979,6.544c-2.555,2.785-4.547,6.059-5.987,9.816
						c-1.438,3.764-2.155,7.819-2.155,12.184c0,4.367,0.765,8.472,2.299,12.32c1.532,3.849,3.569,7.199,6.127,10.022
						c2.552,2.838,5.546,5.083,8.979,6.76c3.433,1.673,7.102,2.499,10.999,2.499c2.507,0,4.986-0.369,7.446-1.111
						c2.458-0.746,4.734-1.719,6.822-2.926c2.088-1.206,3.899-2.614,5.43-4.238c1.532-1.621,2.578-3.326,3.13-5.09l6.822,1.955
						c-0.927,2.5-2.344,4.85-4.244,7.035c-1.903,2.179-4.155,4.068-6.754,5.641c-2.603,1.572-5.454,2.803-8.561,3.685
						c-3.112,0.882-6.332,1.318-9.674,1.318c-5.105,0-9.838-0.994-14.2-2.991c-4.366-1.998-8.146-4.73-11.349-8.214
						c-3.202-3.489-5.729-7.498-7.586-12.046C155.047,96.367,154.127,91.49,154.127,86.296L154.127,86.296z"/>
					<path id="Shape_16_" fill="#27AAE1" d="M242.843,23.566v85.442c0,2.691,0.767,4.829,2.299,6.404
						c1.53,1.579,3.641,2.367,6.332,2.367c1.021,0,2.249-0.115,3.692-0.349c1.438-0.23,2.759-0.579,3.965-1.053l1.393,5.577
						c-1.579,0.652-3.527,1.183-5.848,1.597c-2.32,0.419-4.315,0.632-5.987,0.632c-3.897,0-7.031-1.186-9.398-3.549
						c-2.367-2.371-3.549-5.547-3.549-9.538V23.566H242.843z"/>
					<path id="Shape_15_" fill="#27AAE1" d="M300.579,124.159c-5.104,0-9.838-0.994-14.201-2.991
						c-4.364-1.998-8.145-4.734-11.347-8.214c-3.202-3.489-5.709-7.498-7.518-12.046c-1.812-4.544-2.714-9.425-2.714-14.619
						c0-5.108,0.902-9.905,2.714-14.415c1.809-4.497,4.289-8.438,7.446-11.826c3.154-3.387,6.914-6.057,11.275-8.006
						c4.366-1.95,9.05-2.925,14.062-2.925c5.104,0,9.816,1.001,14.125,2.991c4.316,1.996,8.055,4.688,11.213,8.075
						c3.153,3.389,5.641,7.333,7.446,11.83c1.812,4.506,2.714,9.261,2.714,14.269c0,0.468-0.022,1.046-0.071,1.738
						c-0.051,0.697-0.071,1.136-0.071,1.321h-63.614c0.279,4.176,1.254,8.053,2.925,11.626c1.67,3.575,3.781,6.66,6.333,9.264
						c2.552,2.604,5.501,4.637,8.842,6.122c3.342,1.485,6.915,2.231,10.717,2.231c2.506,0,4.986-0.353,7.453-1.046
						c2.456-0.688,4.734-1.646,6.818-2.852c2.092-1.207,3.944-2.671,5.573-4.39c1.628-1.715,2.901-3.604,3.825-5.641l6.131,1.677
						c-1.117,2.604-2.671,4.982-4.666,7.171c-2,2.176-4.316,4.065-6.966,5.641c-2.641,1.569-5.543,2.803-8.703,3.682
						C307.173,123.72,303.92,124.159,300.579,124.159L300.579,124.159z M328.983,83.786c-0.279-4.262-1.23-8.166-2.852-11.69
						c-1.625-3.522-3.716-6.564-6.268-9.119c-2.554-2.551-5.501-4.545-8.843-5.987c-3.342-1.435-6.918-2.156-10.725-2.156
						c-3.802,0-7.375,0.722-10.717,2.156c-3.341,1.438-6.289,3.437-8.843,5.987c-2.552,2.555-4.593,5.617-6.125,9.188
						c-1.531,3.576-2.438,7.449-2.715,11.626L328.983,83.786L328.983,83.786z"/>
					<path id="Shape_14_" fill="#27AAE1" d="M368.936,124.159c-3.345,0-6.472-0.575-9.398-1.733
						c-2.927-1.157-5.477-2.743-7.66-4.733c-2.178-1.998-3.877-4.365-5.076-7.095c-1.211-2.743-1.814-5.692-1.814-8.844
						c0-3.158,0.742-6.033,2.228-8.632c1.485-2.603,3.569-4.848,6.267-6.758c2.691-1.901,5.87-3.387,9.538-4.455
						c3.662-1.066,7.725-1.599,12.18-1.599c3.897,0,7.841,0.346,11.836,1.043c3.984,0.695,7.554,1.652,10.716,2.858v-7.104
						c0-6.865-1.945-12.316-5.854-16.353c-3.897-4.042-9.179-6.06-15.866-6.06c-3.621,0-7.405,0.746-11.346,2.229
						c-3.944,1.484-7.913,3.623-11.908,6.403l-2.78-4.729c9.374-6.315,18.19-9.469,26.45-9.469c8.723,0,15.611,2.527,20.673,7.586
						c5.062,5.062,7.586,12.045,7.586,20.958v35.356c0,2.321,0.973,3.486,2.928,3.486v6.268c-0.471,0.084-0.91,0.133-1.324,0.133
						h-1.179c-1.673,0-3.196-0.572-4.595-1.736c-1.397-1.154-2.092-2.66-2.092-4.525v-5.988c-3.343,4.364-7.585,7.704-12.728,10.025
						C380.56,123.012,374.974,124.159,368.936,124.159L368.936,124.159z M370.328,118.592c5.383,0,10.347-0.994,14.899-2.991
						c4.543-1.998,7.935-4.71,10.166-8.141c1.575-1.857,2.363-3.714,2.363-5.574V89.075c-7.056-2.6-14.293-3.899-21.713-3.899
						c-7.239,0-13.087,1.485-17.542,4.455c-4.455,2.974-6.683,6.871-6.683,11.694c0,2.414,0.463,4.685,1.393,6.818
						c0.927,2.141,2.23,3.967,3.897,5.501c1.675,1.527,3.645,2.74,5.919,3.619C365.295,118.155,367.729,118.592,370.328,118.592
						L370.328,118.592z"/>
					<path id="Shape_13_" fill="#27AAE1" d="M485.188,122.918h-6.958V82.395c0-9.374-1.324-16.196-3.964-20.465
						c-2.646-4.268-6.898-6.406-12.734-6.406c-3.061,0-6.107,0.558-9.123,1.672c-3.022,1.114-5.801,2.694-8.356,4.734
						c-2.559,2.041-4.804,4.433-6.756,7.171s-3.389,5.686-4.315,8.842v44.975h-6.958V50.374h6.4v17.26
						c1.484-2.78,3.347-5.308,5.577-7.586c2.225-2.272,4.686-4.224,7.37-5.85c2.691-1.621,5.592-2.874,8.704-3.76
						c3.11-0.882,6.293-1.321,9.538-1.321c7.886,0,13.46,2.763,16.709,8.283c3.249,5.521,4.874,13.436,4.874,23.734v41.783H485.188z
						"/>
					<polygon id="Shape_12_" fill="#27AAE1" points="504.543,88.102 504.543,81.702 544.633,81.702 544.633,88.102 					"/>
					<path id="Shape_11_" fill="#27AAE1" d="M559.943,86.296c0-5.106,0.882-9.93,2.643-14.486c1.764-4.544,4.239-8.492,7.453-11.83
						c3.197-3.345,6.979-5.988,11.344-7.934c4.372-1.951,9.147-2.925,14.349-2.925c6.593,0,12.361,1.484,17.329,4.455
						c4.975,2.97,8.743,7.101,11.354,12.391l-6.818,2.229c-2.145-3.988-5.201-7.122-9.189-9.4
						c-3.992-2.273-8.353-3.408-13.087-3.408c-3.991,0-7.704,0.788-11.138,2.365c-3.435,1.579-6.433,3.76-8.984,6.544
						c-2.555,2.785-4.542,6.059-5.992,9.816c-1.433,3.764-2.158,7.819-2.158,12.184c0,4.367,0.771,8.472,2.305,12.32
						c1.537,3.849,3.569,7.199,6.125,10.022c2.559,2.838,5.55,5.083,8.987,6.76c3.43,1.673,7.098,2.499,10.995,2.499
						c2.51,0,4.981-0.369,7.453-1.111c2.454-0.746,4.727-1.719,6.818-2.926c2.085-1.206,3.901-2.614,5.428-4.238
						c1.538-1.621,2.584-3.326,3.131-5.09l6.826,1.955c-0.932,2.5-2.34,4.85-4.243,7.035c-1.903,2.179-4.155,4.068-6.76,5.641
						c-2.597,1.572-5.448,2.803-8.558,3.685s-6.327,1.318-9.671,1.318c-5.114,0-9.845-0.994-14.202-2.991
						c-4.371-1.998-8.144-4.73-11.351-8.214c-3.2-3.489-5.731-7.498-7.593-12.046C560.871,96.367,559.943,91.49,559.943,86.296
						L559.943,86.296z"/>
					<path id="Shape_10_" fill="#27AAE1" d="M663.25,124.159c-5.57,0-10.911-0.928-16.005-2.779
						c-5.113-1.857-9.569-4.64-13.361-8.355l3.485-4.73c3.897,3.524,7.935,6.128,12.114,7.798c4.177,1.674,8.771,2.51,13.78,2.51
						c6.317,0,11.386-1.324,15.245-3.967c3.852-2.643,5.776-6.327,5.776-11.075c0-2.225-0.488-4.102-1.461-5.641
						c-0.973-1.527-2.437-2.823-4.389-3.897c-1.945-1.066-4.361-2.013-7.23-2.852c-2.886-0.837-6.216-1.714-10.032-2.643
						c-4.083-0.931-7.639-1.859-10.644-2.783c-3.016-0.926-5.497-2.04-7.446-3.345c-1.956-1.308-3.413-2.878-4.389-4.734
						c-0.97-1.86-1.457-4.224-1.457-7.1c0-3.617,0.689-6.769,2.084-9.465c1.398-2.691,3.322-4.919,5.78-6.681
						c2.454-1.761,5.281-3.086,8.492-3.968c3.196-0.882,6.616-1.321,10.228-1.321c5.662,0,10.675,0.954,15.032,2.854
						c4.372,1.905,7.761,4.337,10.173,7.307l-3.897,3.76c-2.42-2.781-5.557-4.87-9.405-6.266c-3.842-1.392-7.955-2.089-12.313-2.089
						c-2.691,0-5.222,0.279-7.585,0.835c-2.371,0.559-4.435,1.44-6.199,2.646c-1.76,1.206-3.158,2.759-4.176,4.666
						c-1.021,1.901-1.534,4.152-1.534,6.751c0,2.137,0.349,3.854,1.046,5.15c0.69,1.299,1.813,2.416,3.344,3.349
						c1.537,0.927,3.503,1.734,5.915,2.435c2.416,0.695,5.285,1.463,8.632,2.3c4.539,1.111,8.583,2.18,12.118,3.201
						c3.527,1.017,6.47,2.276,8.841,3.759c2.37,1.484,4.18,3.249,5.431,5.29c1.255,2.039,1.876,4.638,1.876,7.796
						c0,6.497-2.531,11.677-7.593,15.529C678.442,122.234,671.693,124.159,663.25,124.159L663.25,124.159z"/>
					<path id="Shape_9_" fill="#27AAE1" d="M730.211,124.159c-5.578,0-10.904-0.928-16.008-2.779
						c-5.111-1.857-9.566-4.64-13.366-8.355l3.486-4.73c3.904,3.524,7.941,6.128,12.117,7.798c4.177,1.674,8.771,2.51,13.777,2.51
						c6.316,0,11.386-1.324,15.248-3.967c3.859-2.643,5.78-6.327,5.78-11.075c0-2.225-0.495-4.102-1.465-5.641
						c-0.969-1.527-2.433-2.823-4.385-3.897c-1.945-1.066-4.365-2.013-7.234-2.852c-2.883-0.837-6.219-1.714-10.029-2.643
						c-4.089-0.931-7.634-1.859-10.643-2.783c-3.016-0.926-5.501-2.04-7.446-3.345c-1.952-1.305-3.416-2.878-4.389-4.734
						c-0.966-1.856-1.465-4.224-1.465-7.1c0-3.617,0.697-6.769,2.092-9.465c1.398-2.691,3.322-4.919,5.78-6.681
						c2.457-1.761,5.281-3.086,8.492-3.968c3.2-0.882,6.62-1.321,10.228-1.321c5.662,0,10.671,0.954,15.039,2.854
						c4.365,1.905,7.746,4.337,10.169,7.307l-3.908,3.76c-2.412-2.781-5.542-4.87-9.391-6.266
						c-3.856-1.392-7.956-2.089-12.327-2.089c-2.691,0-5.215,0.279-7.586,0.835c-2.36,0.559-4.427,1.44-6.188,2.646
						c-1.764,1.206-3.158,2.759-4.177,4.666c-1.024,1.901-1.537,4.152-1.537,6.751c0,2.137,0.353,3.854,1.046,5.15
						c0.697,1.299,1.813,2.416,3.343,3.349c1.538,0.927,3.497,1.734,5.92,2.435c2.412,0.695,5.281,1.463,8.631,2.3
						c4.543,1.111,8.58,2.18,12.114,3.201c3.531,1.017,6.471,2.276,8.848,3.759c2.364,1.484,4.177,3.249,5.432,5.29
						c1.255,2.039,1.872,4.638,1.872,7.796c0,6.497-2.531,11.677-7.589,15.529C745.41,122.234,738.661,124.159,730.211,124.159
						L730.211,124.159z"/>
				</g>
			</g>
		</g>
	</g>
	<g id="Capa_3_1_">
		<g>
			<path fill="#0078D7" d="M516.762,146.689c-2.388-0.509-4.441-0.76-6.171-0.76c-4.096,0-6.149,2.145-6.149,6.432v4.602h11.512
				v3.79h-11.512v18.65h-4.629v-18.65h-8.443v-3.79h8.443v-4.34c0-6.989,3.646-10.489,10.933-10.489c1.806,0,3.81,0.212,6.013,0.631
				v3.925H516.762z"/>
			<path fill="#0078D7" d="M545.759,166.062c0,2.04-0.286,3.908-0.864,5.609c-0.572,1.698-1.401,3.155-2.482,4.365
				c-1.081,1.213-2.398,2.154-3.939,2.823c-1.562,0.669-3.318,1.008-5.277,1.008c-1.883,0-3.57-0.293-5.063-0.875
				c-1.484-0.586-2.754-1.443-3.792-2.58c-1.039-1.13-1.834-2.531-2.382-4.204c-0.547-1.681-0.819-3.608-0.819-5.78
				c0-2.039,0.293-3.904,0.858-5.581c0.578-1.684,1.408-3.131,2.485-4.34c1.08-1.214,2.395-2.154,3.942-2.824
				c1.552-0.669,3.312-1.007,5.281-1.007c1.88,0,3.57,0.292,5.063,0.875c1.488,0.585,2.75,1.436,3.789,2.562
				c1.039,1.13,1.834,2.524,2.385,4.201C545.483,161.979,545.759,163.897,545.759,166.062z M541.102,166.274
				c0-1.624-0.175-3.043-0.533-4.249c-0.359-1.206-0.868-2.221-1.53-3.037c-0.67-0.812-1.468-1.415-2.42-1.833
				c-0.955-0.404-2.012-0.614-3.179-0.614c-1.36,0-2.524,0.266-3.493,0.803c-0.97,0.526-1.758,1.244-2.378,2.133
				s-1.073,1.918-1.359,3.096c-0.286,1.179-0.433,2.412-0.433,3.702c0,1.618,0.182,3.044,0.533,4.257
				c0.359,1.224,0.865,2.234,1.531,3.05c0.665,0.813,1.46,1.416,2.405,1.831c0.944,0.407,2.008,0.613,3.196,0.613
				c1.359,0,2.521-0.262,3.489-0.799c0.97-0.529,1.765-1.241,2.378-2.133c0.62-0.886,1.081-1.918,1.359-3.096
				C540.962,168.819,541.102,167.578,541.102,166.274z"/>
			<path fill="#0078D7" d="M553.421,153.146h4.156l0.132,4.838c1.548-1.864,3.078-3.218,4.588-4.058
				c1.506-0.833,3.026-1.259,4.56-1.259c2.72,0,4.783,0.883,6.185,2.64c1.405,1.757,2.046,4.378,1.945,7.837h-4.602
				c0.056-2.301-0.279-3.961-1.004-4.999c-0.722-1.036-1.785-1.563-3.18-1.563c-0.613,0-1.228,0.108-1.848,0.328
				c-0.62,0.223-1.262,0.564-1.907,1.046c-0.658,0.484-1.349,1.102-2.081,1.848c-0.731,0.753-1.513,1.659-2.343,2.726v16.866h-4.602
				V153.146L553.421,153.146z"/>
			<path fill="#0078D7" d="M636.38,145.226l-11.609,34.171h-6.274l-11.348-34.171h5.257l7.37,23.032l2.092,6.746l2.147-6.746
				l7.397-23.032H636.38z"/>
			<path fill="#0078D7" d="M662.55,170.137c0,1.625-0.331,3.051-0.99,4.264c-0.666,1.224-1.583,2.234-2.768,3.044
				c-1.186,0.819-2.601,1.419-4.274,1.823c-1.663,0.394-3.493,0.603-5.501,0.603c-0.91,0-1.81-0.042-2.709-0.104
				c-0.896-0.076-1.76-0.157-2.59-0.258c-0.826-0.102-1.61-0.227-2.336-0.369c-0.731-0.144-1.401-0.29-1.994-0.443v-4.497
				c1.304,0.488,2.775,0.868,4.403,1.147c1.632,0.278,3.482,0.418,5.561,0.418c1.499,0,2.771-0.118,3.827-0.359
				c1.053-0.233,1.918-0.582,2.587-1.046c0.673-0.46,1.164-1.021,1.464-1.69c0.307-0.662,0.461-1.415,0.461-2.276
				c0-0.924-0.259-1.712-0.774-2.36c-0.513-0.658-1.186-1.244-2.021-1.75c-0.834-0.522-1.792-0.986-2.866-1.415
				c-1.073-0.429-2.161-0.868-3.283-1.321c-1.116-0.453-2.203-0.944-3.277-1.478c-1.073-0.527-2.029-1.154-2.865-1.88
				c-0.837-0.718-1.514-1.568-2.022-2.552c-0.52-0.969-0.773-2.133-0.773-3.479c0-1.165,0.24-2.315,0.731-3.451
				c0.488-1.13,1.248-2.141,2.273-3.02c1.031-0.878,2.35-1.59,3.96-2.137c1.614-0.533,3.535-0.813,5.767-0.813
				c0.571,0,1.198,0.028,1.868,0.073c0.669,0.053,1.353,0.126,2.032,0.227c0.687,0.091,1.37,0.206,2.032,0.324
				c0.673,0.126,1.297,0.255,1.869,0.395v4.183c-1.343-0.383-2.685-0.676-4.023-0.875c-1.346-0.205-2.643-0.3-3.897-0.3
				c-2.667,0-4.629,0.443-5.885,1.332c-1.251,0.889-1.875,2.085-1.875,3.584c0,0.924,0.251,1.711,0.773,2.377
				c0.517,0.666,1.189,1.259,2.022,1.778c0.837,0.516,1.792,0.993,2.865,1.426c1.074,0.418,2.161,0.861,3.284,1.314
				c1.115,0.453,2.207,0.951,3.28,1.492c1.07,0.536,2.019,1.178,2.869,1.917c0.829,0.742,1.513,1.61,2.019,2.604
				C662.299,167.606,662.55,168.784,662.55,170.137z"/>
			<path fill="#0078D7" d="M691.938,178.113c-2.744,1.137-5.603,1.701-8.601,1.701c-4.828,0-8.537-1.437-11.124-4.322
				c-2.594-2.891-3.884-7.154-3.884-12.802c0-2.736,0.356-5.208,1.074-7.425c0.711-2.21,1.732-4.089,3.054-5.634
				c1.325-1.544,2.929-2.732,4.814-3.569c1.886-0.83,3.991-1.255,6.327-1.255c1.579,0,3.054,0.132,4.42,0.404
				c1.36,0.265,2.657,0.683,3.919,1.241v4.573c-1.241-0.676-2.518-1.195-3.842-1.555c-1.325-0.362-2.771-0.537-4.344-0.537
				c-1.601,0-3.05,0.304-4.351,0.903c-1.297,0.603-2.409,1.475-3.312,2.611c-0.91,1.14-1.604,2.537-2.092,4.183
				c-0.491,1.652-0.732,3.528-0.732,5.641c0,4.428,0.896,7.764,2.698,10.012c1.792,2.249,4.421,3.375,7.893,3.375
				c1.461,0,2.865-0.175,4.211-0.52c1.339-0.338,2.629-0.819,3.87-1.419V178.113L691.938,178.113z"/>
			<path fill="#0078D7" d="M722.398,166.062c0,2.04-0.285,3.908-0.864,5.609c-0.564,1.698-1.401,3.155-2.476,4.365
				c-1.087,1.213-2.398,2.154-3.938,2.823c-1.563,0.669-3.322,1.008-5.285,1.008c-1.883,0-3.566-0.293-5.059-0.875
				c-1.488-0.586-2.75-1.443-3.789-2.58c-1.039-1.13-1.837-2.531-2.385-4.204c-0.544-1.681-0.819-3.608-0.819-5.78
				c0-2.039,0.29-3.904,0.861-5.581c0.579-1.684,1.405-3.131,2.482-4.34c1.08-1.214,2.398-2.154,3.946-2.824
				c1.548-0.669,3.308-1.007,5.277-1.007c1.879,0,3.57,0.292,5.063,0.875c1.484,0.585,2.754,1.436,3.792,2.562
				c1.039,1.13,1.834,2.524,2.382,4.201C722.12,161.979,722.398,163.897,722.398,166.062z M717.745,166.274
				c0-1.624-0.178-3.043-0.533-4.249c-0.359-1.21-0.865-2.221-1.534-3.037c-0.663-0.812-1.464-1.415-2.416-1.833
				c-0.952-0.404-2.012-0.614-3.176-0.614c-1.359,0-2.524,0.266-3.497,0.803c-0.965,0.526-1.76,1.244-2.377,2.133
				c-0.621,0.889-1.074,1.918-1.359,3.096c-0.29,1.179-0.433,2.412-0.433,3.702c0,1.618,0.178,3.044,0.537,4.257
				c0.355,1.224,0.86,2.234,1.526,3.05c0.666,0.813,1.465,1.416,2.405,1.831c0.945,0.407,2.005,0.613,3.197,0.613
				c1.363,0,2.517-0.262,3.493-0.799c0.969-0.529,1.76-1.241,2.377-2.133c0.628-0.886,1.081-1.918,1.367-3.096
				C717.605,168.819,717.745,167.578,717.745,166.274z"/>
			<path fill="#0078D7" d="M727.655,166.818c0-2.228,0.304-4.211,0.914-5.947c0.609-1.729,1.478-3.2,2.601-4.393
				c1.126-1.192,2.475-2.099,4.058-2.719c1.575-0.617,3.336-0.928,5.271-0.928c0.837,0,1.667,0.056,2.472,0.157
				c0.81,0.104,1.601,0.271,2.392,0.498v-11.036h4.57v36.952h-4.078l-0.161-4.972c-1.269,1.852-2.649,3.215-4.127,4.1
				c-1.485,0.893-3.089,1.336-4.811,1.336c-1.503,0-2.82-0.314-3.961-0.945c-1.144-0.627-2.092-1.513-2.852-2.649
				c-0.76-1.144-1.331-2.514-1.715-4.12C727.844,170.556,727.655,168.777,727.655,166.818z M732.306,166.532
				c0,3.173,0.468,5.543,1.402,7.098c0.938,1.563,2.252,2.343,3.96,2.343c1.15,0,2.367-0.522,3.646-1.548
				c1.275-1.024,2.628-2.555,4.04-4.573v-12.181c-0.749-0.349-1.579-0.62-2.485-0.802c-0.906-0.188-1.803-0.271-2.691-0.271
				c-2.476,0-4.406,0.802-5.79,2.405C733,160.606,732.306,163.116,732.306,166.532z"/>
			<path fill="#0078D7" d="M780.599,164.887c0,0.648-0.01,1.186-0.024,1.618c-0.021,0.439-0.052,0.847-0.08,1.233h-18.431
				c0,2.685,0.746,4.741,2.245,6.182c1.499,1.433,3.66,2.157,6.483,2.157c0.768,0,1.534-0.038,2.302-0.094
				c0.767-0.06,1.513-0.143,2.224-0.247c0.715-0.105,1.401-0.224,2.054-0.353c0.651-0.133,1.258-0.275,1.815-0.433v3.741
				c-1.237,0.349-2.635,0.631-4.197,0.844c-1.562,0.223-3.179,0.331-4.845,0.331c-2.253,0-4.184-0.307-5.809-0.917
				c-1.617-0.606-2.949-1.492-3.987-2.653c-1.032-1.157-1.799-2.583-2.301-4.26c-0.495-1.684-0.746-3.587-0.746-5.714
				c0-1.848,0.268-3.598,0.802-5.243c0.529-1.646,1.304-3.092,2.325-4.344c1.018-1.248,2.27-2.23,3.754-2.963
				c1.479-0.732,3.158-1.105,5.041-1.105c1.834,0,3.451,0.29,4.867,0.861c1.408,0.572,2.601,1.392,3.565,2.454
				c0.966,1.053,1.705,2.329,2.193,3.835C780.352,161.338,780.599,163.019,780.599,164.887z M775.868,164.231
				c0.049-1.168-0.063-2.234-0.342-3.203c-0.278-0.966-0.711-1.799-1.293-2.493c-0.586-0.693-1.314-1.244-2.186-1.638
				c-0.872-0.384-1.883-0.586-3.033-0.586c-0.99,0-1.9,0.198-2.719,0.571c-0.819,0.388-1.527,0.928-2.12,1.625
				s-1.073,1.533-1.437,2.51c-0.362,0.977-0.592,2.046-0.676,3.214H775.868z"/>
		</g>
	</g>
</g>
<g id="Capa_2">
	<circle fill="#FFFFFF" cx="91.451" cy="100.652" r="87.013"/>
	<g id="Capa_2_1_">
		<g id="Capa_4">
			<g>
				<path fill="#27AAE1" d="M91.839,23.796c-43.051,0-77.956,34.907-77.956,77.956s34.905,77.958,77.956,77.958
					c43.055,0,77.953-34.909,77.953-77.958S134.895,23.796,91.839,23.796z M91.839,162.921c-21.464,0-44.026-16.503-44.026-43.876
					c0-21.153,44.026-69.791,44.026-78.463c0,8.672,44.026,56.926,44.026,78.463C135.868,146.418,113.305,162.921,91.839,162.921z"
					/>
				<path fill="#27AAE1" d="M58.581,118.32c0,20.77,17.045,35.928,33.259,35.928s33.259-15.158,33.259-35.928
					c0-16.32-33.259-52.93-33.259-59.504C91.839,65.391,58.581,102.282,58.581,118.32z"/>
			</g>
		</g>
		<path fill="#0078D7" stroke="#FFFFFF" d="M166.919,108.733l-15.364-7.384c-0.961-0.46-2.014-0.699-3.07-0.699
			c-1.481,0-2.901,0.457-4.104,1.313c-0.211,0.154-0.418,0.323-0.633,0.515c-0.031,0.033-0.109,0.093-0.178,0.167l-0.007,0.006
			l-27.927,25.462l-11.213-8.499c-0.971-0.739-2.126-1.126-3.345-1.126c-1.374,0-2.695,0.516-3.711,1.439l-4.114,3.734
			c-1.145,1.042-1.806,2.534-1.806,4.092c0,1.548,0.661,3.04,1.802,4.086l9.153,8.339l-9.153,8.359
			c-1.149,1.039-1.806,2.531-1.802,4.079c0,1.559,0.661,3.05,1.806,4.093l4.114,3.729c1.016,0.935,2.337,1.443,3.711,1.443
			c1.218,0,2.374-0.39,3.345-1.122l11.213-8.506l27.914,25.455c0.031,0.028,0.063,0.06,0.089,0.077
			c0.031,0.034,0.074,0.069,0.116,0.111c0.333,0.3,0.684,0.558,1.028,0.773c1.117,0.684,2.396,1.039,3.706,1.039
			c1.053,0,2.109-0.237,3.056-0.697l15.368-7.391c2.437-1.171,4.016-3.671,4.016-6.379V115.12
			C170.936,112.415,169.357,109.904,166.919,108.733z M147.442,128.109v24.13l-15.907-12.068L147.442,128.109z"/>
	</g>
</g>
</svg>
