<?xml version="1.0" encoding="utf-8"?>
<!-- Generator: Adobe Illustrator 16.0.3, SVG Export Plug-In . SVG Version: 6.00 Build 0)  -->
<!DOCTYPE svg PUBLIC "-//W3C//DTD SVG 1.1//EN" "http://www.w3.org/Graphics/SVG/1.1/DTD/svg11.dtd">
<svg version="1.1" id="Icon" xmlns="http://www.w3.org/2000/svg" xmlns:xlink="http://www.w3.org/1999/xlink" x="0px" y="0px"
	 width="128px" height="128px" viewBox="0 0 128 128" enable-background="new 0 0 128 128" xml:space="preserve">
	<g id="CleanCSS_Icon">
		<path fill="#27AAE1" d="M64.081,0c-35.346,0-64,28.654-64,64s28.654,64,64,64c35.346,0,64-28.654,64-64S99.427,0,64.081,0z
				M63.663,121.338c-31.666,0-57.338-25.672-57.338-57.336c0-31.668,25.671-57.34,57.338-57.34s57.336,25.672,57.336,57.34
			C120.999,95.666,95.33,121.338,63.663,121.338z"/>
		<path fill="#27AAE1" d="M31.28,76.719c0,20.133,16.594,32.275,32.383,32.275c15.787,0,32.384-12.143,32.382-32.275
			c0-15.839-32.382-51.334-32.382-57.711C63.663,25.386,31.28,61.161,31.28,76.719z M63.663,102.613
			c-11.927,0-24.464-11.151-24.464-26.426c0-11.801,24.464-38.933,24.464-43.77c0,4.837,24.464,31.76,24.464,43.77
			C88.127,91.463,75.589,102.613,63.663,102.613z"/>
	</g>
</svg>
