<?xml version="1.0" encoding="utf-8"?>
<!-- Generator: Adobe Illustrator 16.0.3, SVG Export Plug-In . SVG Version: 6.00 Build 0)  -->
<!DOCTYPE svg PUBLIC "-//W3C//DTD SVG 1.1//EN" "http://www.w3.org/Graphics/SVG/1.1/DTD/svg11.dtd">
<svg version="1.1" xmlns="http://www.w3.org/2000/svg" xmlns:xlink="http://www.w3.org/1999/xlink" x="0px" y="0px" width="128px"
	 height="128px" viewBox="0.5 0.5 128 128" enable-background="new 0.5 0.5 128 128" xml:space="preserve">
<g id="Capa_2_1_">
	<circle fill="#FFFFFF" cx="64.5" cy="64.5" r="64"/>
</g>
<g id="Capa_1">
	<g id="Capa_2_2_">
		<g id="Capa_4_1_">
			<g>
				<path fill="#27AAE1" d="M64.082,7.162c-31.667,0-57.338,25.672-57.338,57.34c0,31.664,25.672,57.336,57.338,57.336
					c31.667,0,57.336-25.672,57.336-57.336C121.418,32.834,95.749,7.162,64.082,7.162z M64.082,109.494
					c-15.789,0-32.383-12.143-32.383-32.275c0-15.558,32.383-51.333,32.383-57.711c0,6.377,32.382,41.872,32.382,57.711
					C96.466,97.352,79.869,109.494,64.082,109.494z"/>
				<path fill="#27AAE1" d="M39.618,76.687c0,15.275,12.537,26.426,24.464,26.426c11.926,0,24.464-11.15,24.464-26.426
					c0-12.007-24.464-38.93-24.464-43.767C64.082,37.757,39.618,64.889,39.618,76.687z"/>
			</g>
		</g>
		<path fill="#0078D7" stroke="#FFFFFF" stroke-width="2" d="M119.305,69.635l-11.301-5.433c-0.707-0.338-1.482-0.514-2.257-0.514
			c-1.091,0-2.136,0.335-3.021,0.967c-0.154,0.113-0.309,0.238-0.465,0.377c-0.023,0.021-0.08,0.069-0.131,0.123l-0.004,0.002
			l-20.54,18.729l-8.246-6.253c-0.715-0.541-1.564-0.827-2.46-0.827c-1.012,0-1.983,0.378-2.731,1.058l-3.023,2.747
			c-0.845,0.768-1.33,1.865-1.33,3.007s0.483,2.238,1.325,3.006l6.732,6.137l-6.732,6.145c-0.846,0.766-1.328,1.862-1.325,3.004
			c0,1.141,0.483,2.239,1.33,3.007l3.023,2.746c0.748,0.685,1.722,1.059,2.731,1.059c0.896,0,1.745-0.286,2.46-0.827l8.246-6.253
			l20.53,18.723c0.023,0.018,0.047,0.041,0.068,0.057c0.023,0.025,0.056,0.053,0.087,0.081c0.243,0.222,0.5,0.41,0.756,0.566
			c0.821,0.505,1.761,0.768,2.724,0.768c0.775,0,1.552-0.172,2.249-0.513l11.305-5.435c1.792-0.864,2.951-2.706,2.951-4.691V74.331
			C122.256,72.341,121.097,70.497,119.305,69.635z M104.977,83.887v17.749l-11.699-8.875L104.977,83.887z"/>
	</g>
</g>
</svg>
